<?xml version="1.0" encoding="UTF-8"?>
<svg id="chrono" xmlns="http://www.w3.org/2000/svg" viewBox="0 0 24 24">
  <path id="icon" d="M14.63.7c.1.1.24.32.28.45.08.25.09,1.16.04,1.42-.13.63-.84.97-1.44.89v.92c1.66.29,3.26,1,4.5,2.14h.05s1.07-1.12,1.07-1.12c-.26-.29-.98-.74-.48-1.16.23-.2.45-.11.66.05.53.42,1.03,1.11,1.58,1.55.34.4-.13.98-.59.69-.09-.06-.48-.51-.52-.51l-1.08,1.12c3.3,3.47,3.61,8.82.75,12.68-3.58,4.82-10.28,5.17-14.33.72C.95,15.93,2.08,8.56,7.47,5.48c.93-.53,1.92-.85,2.96-1.1l.02-.93c-.52.05-1.08-.13-1.31-.63-.15-.32-.18-1.2-.11-1.56.1-.48.56-.87,1.05-.91,1.23.06,2.55-.09,3.77,0,.29.02.58.13.79.33ZM12.61,4.28v-1.65s-.03-.02-.03-.04l.05-.05h1.24s.11-.07.13-.09c.12-.15.12-1.05-.07-1.14h-3.85s-.14.09-.15.12c-.05.11-.03.87.02.97.01.02.11.13.12.13h1.26v1.78l1.28-.04ZM17.64,20.44c4.17-3.93,3.66-10.89-1.24-13.96-5.22-3.26-11.75.12-12.74,6.01-1.32,7.9,7.94,13.65,13.98,7.95ZM16.62,8.66c.06.08.06.21.02.3l-3.05,4.7c-.12.71-.33,1.37-1.07,1.63-1.49.52-2.7-1.23-1.72-2.43.32-.39.75-.42,1.13-.68l4.34-3.59c.1-.05.28-.02.34.06ZM13.9,11.67l-1.74,1.48c-.31.02-.51.02-.71.29-.56.75.56,1.56,1.1.82.17-.23.1-.46.09-.73l1.26-1.85ZM12.4,9.87c-.08-.89.12-2.01,0-2.88-.07-.52-.74-.52-.85-.04.06.91-.09,1.94,0,2.84.01.11.04.25.12.32.24.24.68.08.73-.26Z" fill="currentColor"/>
</svg>