<?xml version="1.0" encoding="UTF-8"?>
<svg id="linux" xmlns="http://www.w3.org/2000/svg" viewBox="0 0 48 48">
  <path id="icon" d="M40.6,36.54c.15.23.48.46.67.8,1.67,3.02-1.49,3.25-3.42,4.58-1.57,1.09-2.39,2.59-4.28,3.24-1.55.54-3.22.37-4.24-1.05-.2-.28-.41-.97-.56-1.11-.32-.28-1.2-.09-1.67-.14-1.37-.15-2.45-.39-3.89-.26-.47.04-2.75.42-3.05.57-.6.3-.79,1.32-2.04,1.58-2.65.54-4.44-.83-6.86-1.38-1.03-.23-2.9-.29-3.68-.64-.84-.38-1.32-1.41-1.3-2.29,0-.5.33-1.09.39-1.56.17-1.36-.55-2.5.37-3.81.67-.95,1.92-.85,2.74-1.54.11-.09,1.25-1.45,1.29-1.54.21-.46.02-1.69.07-2.3.35-4.05,3.4-7.47,5.55-10.62,3.04-4.44.78-7.66,1.91-12.17,1.27-5.07,9.06-5.85,11.53-1.63,2.01,3.44.51,7.43,1.78,10.9.9,2.47,3.14,4.24,4.52,6.49,1.84,2.99,3.04,6.31,1.93,9.83,1.67.93,1.31,2.65,2.25,4.05ZM26.46,13.04c1.56.65,1.67-1.33,1.52-2.43-.28-2.01-2.58-2.9-3.72-.96-.59.99-.95,2.5.67,2.41-.07-.74.14-1.4.8-1.79,1.38.12,1.14,1.82.74,2.77ZM22.12,11.76c.39-3.77-3.51-3.58-2.87.2.06.35.4,1.33.85,1.2.63-.17.12-.56.05-.84-.56-2.32,1.33-2.42,1.16-.26l.81-.3ZM23.05,12c-.45,0-.86.14-1.26.34-.33.16-2.48,1.84-2.55,2.05-.16.54.05.97.39,1.36.21.24,1.79,1.48,2.1,1.67,1.6,1.01,2.77-.06,4.08-.79.3-.17.67-.2,1.01-.39.98-.55,1.83-1.78.62-2.58-.32-.21-2.84-1.34-3.26-1.48-.33-.11-.79-.2-1.12-.19ZM33.18,28.91c-1-4.68-4.1-8.54-5.19-13.22-.91.82-2.26,1.63-3.39,2.12-2.38,1.03-3.04-.16-4.84-1.42-.42,5.17-4.4,9.27-4.46,14.5-2.09-2.5-.3-5.54.7-8.09-.89,1.14-1.7,2.91-2.02,4.32-1.17,5.13,2.76,5.05,5.16,8.09.91,1.15,1.38,2.91-.63,2.93.87,1.98,3.02,2.82,5.08,2.93,1.34.07,4.67-.66,5.52-1.74.92-1.18.55-4.83,1.18-6.48.38-.99,1.17-1.16,1.58-1.76s.28-1.4,1.48-1.42c1.08-.02,3.99,1.17,3.7,2.62.59-.02.42-.52.28-.91-.33-.94-1.63-1.53-2.5-1.89.55-2.95-.77-6.11-2.94-8.07l1.42,2c1.02,1.73,1.37,3.71.81,5.67l-.94-.16ZM7.55,35.39c-.68.8-.03,2.79-.19,3.92-.07.49-.43.92-.41,1.54.04,1.73,1.42,1.42,2.57,1.63.89.16,1.79.3,2.65.55,2.01.58,4.65,2.33,6.7.82,2.62-1.92-1.19-5.43-2.3-7.18-.78-1.21-1.77-3.81-2.93-4.45-2.07-1.14-2.36.86-3.55,1.87-.75.63-2.04.72-2.53,1.3ZM31.83,31.86c-1.6,1.15-1.22,3.49-1.48,5.21-.35,2.33-2.59,6.43.62,7.64,2.75,1.04,4.58-1.85,6.46-3.21.72-.52,3.54-1.8,3.73-2.26.5-1.16-1.16-2.37-1.58-3.43-.39-.98-.33-2.54-1.65-2.81-1.54-.32-1.53.6-2.69,1.01-1.06.37-2.18.41-2.85-.63-.34-.53-.23-1.05-.56-1.52ZM24.75,15.85c-2.19.99-3.54.46-5.04-1.28-.25.41.79,1.15,1.14,1.37,1.47.91,2.54.79,4.07.07.22-.1,2.43-1.41,2.11-1.72l-2.27,1.56Z"/>
</svg>