<?xml version="1.0" encoding="UTF-8"?>
<svg id="windows" xmlns="http://www.w3.org/2000/svg" viewBox="0 0 46.1 42.9">
  <path id="icon" d="M0,36.13l4.06-15.17c4.34-2.31,11.78-2.08,16.1.19.26.14.75.31.74.61l-3.88,15.63c-1.15-.35-2.23-.88-3.37-1.26-3.8-1.26-7.84-1.75-11.73-.56-.66.2-1.28.48-1.91.74v-.18ZM28.54,4.8l-3.92,15.75c3.2,2.89,8.58,3.19,12.67,2.49,1.03-.18,3.29-.71,4.12-1.28.12-.08.19-.18.23-.31l4.46-15.04c-5.79,1.48-12.19,1.06-17.56-1.62ZM23.72,23.89l-4.42,16.2c1.64,1.18,3.63,1.88,5.61,2.22,3.75.65,8.02.36,11.3-1.68l4.57-15.31c-5.44,1.94-12.16,1.83-17.06-1.44ZM26.25,2.45c-1.84-.91-3.94-1.53-5.97-1.86C16.6,0,12.44.09,9.34,2.36c-1.48,4.88-2.77,9.83-4.02,14.77,5.58-1.61,11.68-1.02,17.02,1.17l3.92-15.85Z"/>
</svg>