<?xml version="1.0" encoding="UTF-8"?>
<svg id="ref_-_copie" data-name="ref - copie" xmlns="http://www.w3.org/2000/svg" viewBox="0 0 24 24">
  <g id="metro-docv">
    <path id="icon" fill="currentColor" d="M22.61,7.29h-.4c-.02-.24.03-.53,0-.76,0-.06-.07-.18-.13-.18h-4.2v-.52s-.11-.13-.16-.12h-3.15c-.23.04-.11.48-.14.64h-.41s-.11.11-.12.16c-.04.23.02.54,0,.78h-.38c-.09,0-.19.16-.16.25l.51,4.87c.05.29.23.52.54.56h7.13c.24-.02.44-.23.51-.46.21-1.55.45-3.1.64-4.66.01-.09.04-.2.05-.29,0-.05,0-.1,0-.15-.02-.03-.11-.13-.14-.13h0ZM14.28,6.72h.4s.12-.09.12-.12v-.49l.03-.03h2.66l.03.03v.49s.09.12.12.12h4.2v.49l-7.55.07v-.57h0ZM21.7,12.38c-.02.1-.09.18-.2.21h-7.07c-.14-.05-.16-.17-.18-.3l-.48-4.62h8.58l-.64,4.71h0ZM15.91,9.94c.47,0,.86-.33.96-.77h2.23c.14,0,.25.11.25.25v.33h-.7s-.11.05-.11.09v2h.19c.05,0,.12.08.12.13v.18h1.6s.03-.01.04-.02c.04-.02.06-.07.07-.11v-2.15c0-.07-.04-.11-.11-.12h-.69v-.33c0-.36-.29-.66-.66-.66h-2.23c-.09-.44-.49-.77-.96-.77-.54,0-.98.44-.98.98s.44.98.98.98h0ZM18.86,11.22h1.39s.04.07,0,.08h-1.38c-.05,0-.06-.07,0-.08h0ZM18.86,10.91h1.37s.08.04.03.07h-1.4s-.04-.07,0-.07ZM20.26,11.91h-.57s-.05-.04-.02-.07c0,0,.02,0,.03,0h.55s.05.06.01.08h0ZM20.26,11.61h-1.41s-.03-.07,0-.08h1.4s.03.06,0,.08ZM20.26,10.68h-1.42s-.03-.06,0-.07h1.41s.03.06,0,.07h0ZM20.23,10.37h-1.36s-.07-.06-.02-.08h1.41s.02.08-.03.08ZM19.93,10.05s-.01,0-.02.01h-.71s-.04-.07,0-.08h.69s.06.04.03.07ZM18.78,11.97v.12l-.18-.17h.13s.04.04.04.05ZM3.58,20.22l-.02-.5c-.44.05-.82-.28-.77-.74l2.25-7.79c.08-.12.2-.22.35-.23.68.05,1.44-.06,2.11,0,.24.02.38.16.45.38l.82,2.91s.3-.46.3-.49c0-.09-.21-.09-.24-.21-.03-.1.4-.89.47-1.04.14-.13.3.08.44.11.12-.12.15-.42.37-.37.3.07-.1.46-.08.56.09.07.33.13.33.25,0,.15-.54.76-.62.94-.16.1-.3-.12-.38-.07l-1.69,2.98h.84s.15-.07.18-.1c.21-.23-.12-.69-.11-.96l.41-.72h.05l1.09,3.83c.05.51-.29.79-.78.77v.47l-.04.04h-.66l-.23-.49-3.86-.02c-.11.02-.18.43-.3.5h-.67,0ZM5.97,11.75c-.18,0-.34-.02-.45.14-.48,1.57-.95,3.16-1.36,4.75,0,.11.16.26.26.26h1.51l.04-.04v-5.11h0ZM6.95,16.9l.31-.02,1.04-1.85-.89-3.1c-.1-.19-.27-.19-.47-.18v5.15h0ZM6.19,12.21c-.11.03-.09.17.05.19.08.01.37.02.45,0,.13-.02.14-.18.02-.2-.06-.01-.47,0-.52,0h0ZM6.65,12.88s.02-.14-.04-.16c-.09-.03-.44-.03-.35.15.05.08.34.07.38.02h0ZM6.72,13.21c-.13-.02-.38,0-.53,0-.02,0-.08.08-.07.11,0,.02.05.09.07.09h.55s.1-.18-.02-.2ZM6.32,13.72s-.06.05-.07.08c-.02.16.41.16.42.02,0-.13-.28-.13-.35-.1ZM6.16,14.41s.43.04.51.03c.16-.02.18-.19.02-.22-.09-.02-.54-.02-.56.07l.03.13ZM6.32,14.75c-.07.02-.1.12-.03.17.07.05.36.05.38-.07.02-.14-.28-.13-.35-.1ZM6.74,15.24c-.07-.02-.44,0-.55,0-.02,0-.08.08-.07.11,0,.02.05.09.07.09h.53c.09,0,.1-.18.02-.2ZM6.65,15.78s-.34-.06-.38.02c-.09.18.26.18.35.15.06-.02.08-.12.04-.16h0ZM6.22,16.25c-.13.03-.12.17,0,.19.07.01.52,0,.55-.02.07-.07,0-.16-.08-.18-.07-.01-.4-.01-.47,0h0ZM12.88,18.78v.91l-2.33-1.74,2.33-1.75v1.03c1.28,0,2.63-.21,3.66-1.01.81-.63,1.3-1.6,1.49-2.59l.02.19c-.05.82-.27,1.6-.67,2.31-.91,1.61-2.64,2.65-4.5,2.64ZM11.12,7.81v-1.03c-1.15-.01-2.37.16-3.36.79s-1.57,1.67-1.79,2.8l-.02-.19c.06-.98.37-1.93.94-2.73.95-1.36,2.56-2.23,4.23-2.2v-.93l2.35,1.75-2.35,1.75Z"/>
  </g>
</svg>