<?xml version="1.0" encoding="UTF-8"?>
<svg id="ref_-_copie" data-name="ref - copie" xmlns="http://www.w3.org/2000/svg" viewBox="0 0 24 24">
  <g id="setlidt-chrono">
    <path id="icon" fill="currentColor" d="M19.63,1.75s.12.16.14.22c.04.12.04.57.02.7-.06.31-.41.47-.7.44v.45c.81.14,1.6.49,2.2,1.05h.02l.52-.55c-.13-.14-.48-.36-.23-.57.11-.1.22-.05.32.02.26.21.5.54.77.76.17.2-.06.48-.29.34-.04-.03-.23-.25-.25-.25l-.53.55c1.62,1.7,1.77,4.32.37,6.21-1.75,2.36-5.03,2.53-7.01.35-2.04-2.26-1.49-5.86,1.15-7.37.46-.26.94-.42,1.45-.54v-.46c-.24.02-.52-.06-.63-.31-.07-.16-.09-.59-.05-.76.05-.23.27-.43.51-.45.6.03,1.25-.04,1.85,0,.14,0,.28.06.39.16h0ZM18.64,3.5v-.81s-.01,0-.01-.02l.02-.02h.61s.05-.03.06-.04c.06-.07.06-.51-.03-.56h-1.88s-.07.04-.07.06c-.02.05-.01.43,0,.47,0,0,.05.06.06.06h.62v.87l.63-.02h0ZM21.1,11.41c2.04-1.92,1.79-5.33-.61-6.83-2.56-1.6-5.75.06-6.24,2.94-.65,3.87,3.89,6.68,6.84,3.89ZM20.6,5.65s.03.1,0,.15l-1.49,2.3c-.06.35-.16.67-.52.8-.73.25-1.32-.6-.84-1.19.16-.19.37-.21.55-.33l2.12-1.76s.14,0,.17.03h0ZM19.27,7.12l-.85.72c-.15,0-.25,0-.35.14-.27.37.27.76.54.4.08-.11.05-.23.04-.36l.62-.91h0ZM18.54,6.24c-.04-.44.06-.98,0-1.41-.03-.25-.36-.25-.42-.02.03.45-.04.95,0,1.39,0,.05.02.12.06.16.12.12.33.04.36-.13h0ZM8.19,11.17s.04.01.06.01c.11,0,.22,0,.33,0,.03,0,.09,0,.11.04.14.4.27.8.36,1.2.35,1.48.34,3.07,0,4.56-.04.17-.09.34-.13.51-.03,0-.06.01-.1.01-.14,0-.34.01-.49,0-.01,0-.05,0-.06-.02.08-.29.16-.58.23-.88.34-1.58.24-3.28-.27-4.81H2.61c.04.2.1.38.15.57.39,1.6.37,3.3-.06,4.89-.16.61-.52,1.21-.12,1.81.49.71,1.56.61,1.9-.18.1-.23.09-.51.09-.76h5.58v.09c.09,1.06-.74,2-1.81,1.94-1.41,0-2.82,0-4.22-.01-.4,0-.83.05-1.2-.08-.43-.16-.78-.47-.98-.88-.38-.8-.03-1.36.17-2.13.32-1.22.39-2.45.21-3.7-.11-.75-.33-1.47-.59-2.19h6.45ZM8.14,16.48l-1.3-.75c-.06-.04-.13,0-.13.08v1.5c0,.07.07.11.13.08l1.3-.75c.06-.04.06-.12,0-.15ZM7.58,13.31c0-.22-.18-.39-.39-.39h-3.32c-.22,0-.39.18-.39.39s.18.39.39.39h3.32c.22,0,.39-.18.39-.39ZM7.83,14.94c0-.22-.18-.39-.39-.39h-3.32c-.22,0-.39.18-.39.39s.18.39.39.39h3.32c.22,0,.39-.18.39-.39ZM6.17,16.56c0-.22-.18-.39-.39-.39h-1.91c-.22,0-.39.18-.39.39s.18.39.39.39h1.91c.22,0,.39-.18.39-.39ZM17.39,16.14c.4-.71.62-1.5.67-2.31l-.02-.19c-.19,1-.68,1.96-1.49,2.59-1.03.81-2.38,1.01-3.66,1.01v-1.03l-2.33,1.75,2.33,1.74v-.91c1.86,0,3.6-1.03,4.5-2.64ZM13.47,6.06l-2.35-1.75v.93c-1.67-.02-3.28.85-4.23,2.2-.56.81-.88,1.75-.94,2.73l.02.19c.23-1.13.81-2.17,1.79-2.8s2.2-.8,3.36-.79v1.03l2.35-1.75Z"/>
  </g>
</svg>